<?xml version="1.0" encoding="utf-8"?>
<!-- Generator: Adobe Illustrator 15.0.2, SVG Export Plug-In . SVG Version: 6.00 Build 0)  -->
<!DOCTYPE svg PUBLIC "-//W3C//DTD SVG 1.1//EN" "http://www.w3.org/Graphics/SVG/1.1/DTD/svg11.dtd">
<svg version="1.1" id="Layer_1" xmlns="http://www.w3.org/2000/svg" xmlns:xlink="http://www.w3.org/1999/xlink" x="0px" y="0px"
	 width="648.371px" height="170.775px" viewBox="0 0 648.371 170.775" enable-background="new 0 0 648.371 170.775"
	 xml:space="preserve">
<g>
	<g>
		<path fill="#77787A" d="M247.189,119.998c-3.312,1.584-10.656,4.032-20.016,4.032c-21.023,0-34.704-14.257-34.704-35.567
			c0-21.456,14.688-37.151,37.439-37.151c7.488,0,14.112,1.872,17.568,3.744l-2.88,9.648c-3.024-1.584-7.775-3.312-14.688-3.312
			c-15.984,0-24.624,11.952-24.624,26.353c0,16.128,10.368,26.062,24.191,26.062c7.2,0,11.952-1.729,15.552-3.312L247.189,119.998z"
			/>
		<path fill="#77787A" d="M262.021,20.208h12.672v43.631h0.288c2.016-3.6,5.184-6.912,9.072-9.072
			c3.744-2.16,8.208-3.456,12.959-3.456c9.36,0,24.336,5.76,24.336,29.664v41.471h-12.672v-40.03
			c0-11.232-4.176-20.592-16.128-20.592c-8.208,0-14.543,5.76-16.992,12.527c-0.72,1.872-0.864,3.744-0.864,6.048v42.047H262.02
			L262.021,20.208L262.021,20.208z"/>
		<path fill="#77787A" d="M341.94,74.495c0-8.208-0.145-15.265-0.576-21.744h11.088l0.576,13.824h0.432
			c3.168-9.36,10.944-15.265,19.44-15.265c1.296,0,2.304,0.145,3.455,0.288v11.952c-1.297-0.288-2.593-0.288-4.319-0.288
			c-8.928,0-15.265,6.624-16.992,16.127c-0.288,1.729-0.432,3.888-0.432,5.904v37.15H341.94V74.495z"/>
		<path fill="#77787A" d="M450.66,87.023c0,25.775-18,37.008-34.704,37.008c-18.72,0-33.407-13.823-33.407-35.855
			c0-23.184,15.408-36.863,34.561-36.863C437.124,51.312,450.66,65.855,450.66,87.023z M395.509,87.743
			c0,15.264,8.641,26.782,21.023,26.782c12.096,0,21.168-11.376,21.168-27.07c0-11.809-5.904-26.641-20.88-26.641
			C401.988,60.815,395.509,74.639,395.509,87.743z"/>
		<path fill="#77787A" d="M466.645,71.615c0-7.345-0.287-13.104-0.575-18.864h11.088l0.576,11.376h0.432
			c3.889-6.624,10.368-12.816,22.032-12.816c9.358,0,16.56,5.76,19.583,13.968h0.288c2.16-4.031,5.04-6.911,7.92-9.071
			c4.176-3.168,8.64-4.896,15.264-4.896c9.36,0,23.04,6.048,23.04,30.24v40.895h-12.384V83.135c0-13.536-5.04-21.456-15.12-21.456
			c-7.344,0-12.815,5.328-15.119,11.375c-0.576,1.872-1.009,4.032-1.009,6.336v43.055h-12.384V80.687
			c0-11.088-4.896-19.007-14.543-19.007c-7.776,0-13.681,6.335-15.696,12.671c-0.72,1.729-1.008,4.032-1.008,6.192v41.902h-12.385
			V71.615z"/>
		<path fill="#77787A" d="M593.796,89.902c0.288,17.138,11.088,24.191,23.903,24.191c9.072,0,14.688-1.584,19.296-3.6l2.304,9.071
			c-4.464,2.017-12.238,4.464-23.327,4.464c-21.455,0-34.271-14.256-34.271-35.278c0-21.023,12.384-37.439,32.688-37.439
			c22.896,0,28.801,19.872,28.801,32.688c0,2.592-0.146,4.464-0.434,5.902H593.796z M630.947,80.831
			c0.145-7.92-3.312-20.448-17.567-20.448c-12.96,0-18.432,11.664-19.438,20.448H630.947z"/>
	</g>
</g>
<circle id="circle47_1_" fill="#FFFFFF" cx="85.314" cy="85.713" r="83.805"/>
<path id="path49_1_" fill-opacity="0.1" d="M138.644,100.95c0-29.454-23.877-53.331-53.33-53.331
	c-29.454,0-53.331,23.877-53.331,53.331h15.237c0-21.039,17.055-38.094,38.093-38.094c21.038,0,38.093,17.055,38.093,38.094"/>
<circle id="circle51_1_" fill-opacity="0.1" cx="89.123" cy="96.379" r="28.951"/>
<linearGradient id="circle53_2_" gradientUnits="userSpaceOnUse" x1="-175.6665" y1="582.1975" x2="-175.6665" y2="581.4358" gradientTransform="matrix(82 0 0 -82 14489.9707 47794.6992)">
	<stop  offset="0" style="stop-color:#81B4E0"/>
	<stop  offset="1" style="stop-color:#0C5A94"/>
</linearGradient>
<circle id="circle53_1_" fill="url(#circle53_2_)" cx="85.314" cy="85.712" r="31.236"/>
<linearGradient id="path55_2_" gradientUnits="userSpaceOnUse" x1="-114.519" y1="250.3918" x2="-114.519" y2="181.0621" gradientTransform="matrix(1 0 0 -1 202.5 250.7759)">
	<stop  offset="0" style="stop-color:#F06B59"/>
	<stop  offset="1" style="stop-color:#DF2227"/>
</linearGradient>
<path id="path55_1_" fill="url(#path55_2_)" d="M161.5,47.619C140.525,5.419,89.312-11.788,47.111,9.186
	c-13.159,6.54-24.405,16.367-32.65,28.53l34.284,59.425c-6.314-20.068,4.837-41.456,24.905-47.769
	c3.529-1.11,7.203-1.701,10.902-1.752"/>
<linearGradient id="path57_2_" gradientUnits="userSpaceOnUse" x1="-181.7378" y1="104.4104" x2="-146.6928" y2="162.3109" gradientTransform="matrix(1 0 0 -1 202.5 250.7759)">
	<stop  offset="0" style="stop-color:#388B41"/>
	<stop  offset="1" style="stop-color:#4CB749"/>
</linearGradient>
<path id="path57_1_" fill="url(#path57_2_)" d="M14.461,37.716C-11.78,76.86-1.32,129.864,37.824,156.105
	c12.111,8.119,26.1,12.999,40.633,14.175l35.808-60.948c-13.389,16.228-37.397,18.529-53.625,5.14
	c-5.512-4.547-9.634-10.552-11.895-17.33"/>
<linearGradient id="path59_2_" gradientUnits="userSpaceOnUse" x1="-64.3374" y1="98.2522" x2="-101.6683" y2="188.1511" gradientTransform="matrix(1 0 0 -1 202.5 250.7759)">
	<stop  offset="0" style="stop-color:#E4B022"/>
	<stop  offset="0.3" style="stop-color:#FCD209"/>
</linearGradient>
<path id="path59_1_" fill="url(#path59_2_)" d="M78.457,170.28c46.991,3.552,87.965-31.662,91.518-78.653
	c1.146-15.162-1.779-30.354-8.476-44.007H84.552c21.037,0.097,38.014,17.23,37.917,38.268c-0.039,8.511-2.928,16.766-8.205,23.444"
	/>
<linearGradient id="path61_2_" gradientUnits="userSpaceOnUse" x1="-170.1362" y1="155.9202" x2="-170.1362" y2="216.8683" gradientTransform="matrix(1 0 0 -1 202.5 250.7759)">
	<stop  offset="0" style="stop-color:#000000;stop-opacity:0.15"/>
	<stop  offset="0.3" style="stop-color:#000000;stop-opacity:0.06"/>
	<stop  offset="1" style="stop-color:#000000;stop-opacity:0.03"/>
</linearGradient>
<path id="path61_1_" fill="url(#path61_2_)" d="M14.461,37.716l34.284,59.425c-2.54-8.547-2-17.714,1.523-25.904L15.984,35.43"/>
<linearGradient id="path63_2_" gradientUnits="userSpaceOnUse" x1="-86.0093" y1="136.2385" x2="-127.911" y2="93.5749" gradientTransform="matrix(1 0 0 -1 202.5 250.7759)">
	<stop  offset="0" style="stop-color:#000000;stop-opacity:0.15"/>
	<stop  offset="0.3" style="stop-color:#000000;stop-opacity:0.06"/>
	<stop  offset="1" style="stop-color:#000000;stop-opacity:0.03"/>
</linearGradient>
<path id="path63_1_" fill="url(#path63_2_)" d="M78.457,170.28l35.808-60.948c-5.65,6.737-13.456,11.312-22.094,12.951
	L76.933,170.28"/>
<linearGradient id="path65_2_" gradientUnits="userSpaceOnUse" x1="-86.6157" y1="123.9641" x2="-80.5211" y2="184.1482" gradientTransform="matrix(1 0 0 -1 202.5 250.7759)">
	<stop  offset="0" style="stop-color:#000000;stop-opacity:0.15"/>
	<stop  offset="0.3" style="stop-color:#000000;stop-opacity:0.06"/>
	<stop  offset="1" style="stop-color:#000000;stop-opacity:0.03"/>
</linearGradient>
<path id="path65_1_" fill="url(#path65_2_)" d="M161.5,47.619H84.552c11.59,0.054,22.526,5.381,29.712,14.476l48.759-12.19"/>
</svg>
