<?xml version="1.0" encoding="UTF-8" standalone="no"?>
<!-- Created with Inkscape (http://www.inkscape.org/) -->

<svg
   xmlns:dc="http://purl.org/dc/elements/1.1/"
   xmlns:cc="http://creativecommons.org/ns#"
   xmlns:rdf="http://www.w3.org/1999/02/22-rdf-syntax-ns#"
   xmlns:svg="http://www.w3.org/2000/svg"
   xmlns="http://www.w3.org/2000/svg"
   xmlns:sodipodi="http://sodipodi.sourceforge.net/DTD/sodipodi-0.dtd"
   xmlns:inkscape="http://www.inkscape.org/namespaces/inkscape"
   width="100"
   height="100"
   id="svg2985"
   version="1.1"
   inkscape:version="0.48.3.1 r9886"
   sodipodi:docname="poo.svg">
  <defs
     id="defs2987" />
  <sodipodi:namedview
     id="base"
     pagecolor="#ffffff"
     bordercolor="#666666"
     borderopacity="1.0"
     inkscape:pageopacity="0.0"
     inkscape:pageshadow="2"
     inkscape:zoom="8"
     inkscape:cx="60.487653"
     inkscape:cy="65.884019"
     inkscape:current-layer="layer1"
     showgrid="true"
     inkscape:grid-bbox="true"
     inkscape:document-units="px"
     inkscape:window-width="956"
     inkscape:window-height="1161"
     inkscape:window-x="2326"
     inkscape:window-y="18"
     inkscape:window-maximized="0" />
  <metadata
     id="metadata2990">
    <rdf:RDF>
      <cc:Work
         rdf:about="">
        <dc:format>image/svg+xml</dc:format>
        <dc:type
           rdf:resource="http://purl.org/dc/dcmitype/StillImage" />
        <dc:title />
      </cc:Work>
    </rdf:RDF>
  </metadata>
  <g
     id="layer1"
     inkscape:label="Layer 1"
     inkscape:groupmode="layer"
     transform="translate(0,52)">
    <path
       style="fill:#000000;stroke:#000000;stroke-width:1px;stroke-linecap:butt;stroke-linejoin:miter;stroke-opacity:1;fill-opacity:1"
       d="M 13,70 C 26.142082,64.200875 70.462528,56.550678 82.428571,57 99.577137,55.264322 106.28715,79.746454 90.857142,85.714286 L 7.4285718,83.857143 C -1.7100398,84.008326 -3.0353636,75.463249 13,70 z"
       id="path3761"
       inkscape:connector-curvature="0"
       transform="translate(0,-52)"
       sodipodi:nodetypes="ccccc" />
    <path
       style="fill:#000000;fill-opacity:1;stroke:#000000;stroke-width:1px;stroke-linecap:butt;stroke-linejoin:miter;stroke-opacity:1"
       d="M 24.714286,50.857143 C 57.646342,41.553045 61.060915,43.510102 79,39.142857 c 10.601537,-1.133076 12.810533,15.041442 -2.428571,16.142857 -20.162077,1.203226 -35.315751,3.590874 -55,9.857143 -11.7710902,3.212326 -5.642838,-10.950735 3.142857,-14.285714 z"
       id="path3763"
       inkscape:connector-curvature="0"
       transform="translate(0,-52)"
       sodipodi:nodetypes="ccccc" />
    <path
       style="fill:#000000;fill-opacity:1;stroke:#000000;stroke-width:1px;stroke-linecap:butt;stroke-linejoin:miter;stroke-opacity:1"
       d="m 32.357143,-16.232142 c 2.908513,-0.539545 25.286126,-3.572832 23.232143,-12.678573 9.616762,1.785694 3.011835,4.421614 13.035714,7.625 4.670991,0.243358 4.09882,5.988865 1.696428,7.375001 C 68.310485,-12.750437 43.914186,-8.677428 34,-6.642857 c -7.65336,3.045908 -18.606977,-6.519068 -1.642857,-9.589285 z"
       id="path3765"
       inkscape:connector-curvature="0"
       sodipodi:nodetypes="cccscc" />
  </g>
</svg>
